<svg xmlns="http://www.w3.org/2000/svg" viewBox="0 0 760 340" font-family="ui-monospace,Menlo,Consolas,monospace" font-size="12">
<rect x="571" y="30" width="86" height="266" fill="#8b5cf6" opacity="0.12"/>
<text x="614" y="46" text-anchor="middle" fill="#8b5cf6">handoff</text>
<line x1="52" x2="744" y1="296.0" y2="296.0" stroke="#8b949e33"/>
<text x="44" y="300.0" text-anchor="end" fill="#8b949e">0%</text>
<line x1="52" x2="744" y1="229.5" y2="229.5" stroke="#8b949e33"/>
<text x="44" y="233.5" text-anchor="end" fill="#8b949e">25%</text>
<line x1="52" x2="744" y1="163.0" y2="163.0" stroke="#8b949e33"/>
<text x="44" y="167.0" text-anchor="end" fill="#8b949e">50%</text>
<line x1="52" x2="744" y1="96.5" y2="96.5" stroke="#8b949e33"/>
<text x="44" y="100.5" text-anchor="end" fill="#8b949e">75%</text>
<line x1="52" x2="744" y1="30.0" y2="30.0" stroke="#8b949e33"/>
<text x="44" y="34.0" text-anchor="end" fill="#8b949e">100%</text>
<text x="52" y="314" text-anchor="middle" fill="#8b949e">2</text>
<text x="138" y="314" text-anchor="middle" fill="#8b949e">5</text>
<text x="225" y="314" text-anchor="middle" fill="#8b949e">8</text>
<text x="312" y="314" text-anchor="middle" fill="#8b949e">11</text>
<text x="398" y="314" text-anchor="middle" fill="#8b949e">14</text>
<text x="484" y="314" text-anchor="middle" fill="#8b949e">17</text>
<text x="571" y="314" text-anchor="middle" fill="#8b949e">20</text>
<text x="658" y="314" text-anchor="middle" fill="#8b949e">23</text>
<text x="744" y="314" text-anchor="middle" fill="#8b949e">26</text>
<text x="398" y="334" text-anchor="middle" fill="#8b949e">layer (Qwen3-0.6B, 28 layers)</text>
<path d="M52.0,48.3L138.5,133.6L225.0,166.0L311.5,122.0L398.0,146.5L484.5,100.4L571.0,196.2L657.5,280.1L744.0,296.0" fill="none" stroke="#14b8a6" stroke-width="2.5" stroke-linejoin="round"/>
<circle cx="52.0" cy="48.3" r="3.5" fill="#14b8a6"/>
<circle cx="138.5" cy="133.6" r="3.5" fill="#14b8a6"/>
<circle cx="225.0" cy="166.0" r="3.5" fill="#14b8a6"/>
<circle cx="311.5" cy="122.0" r="3.5" fill="#14b8a6"/>
<circle cx="398.0" cy="146.5" r="3.5" fill="#14b8a6"/>
<circle cx="484.5" cy="100.4" r="3.5" fill="#14b8a6"/>
<circle cx="571.0" cy="196.2" r="3.5" fill="#14b8a6"/>
<circle cx="657.5" cy="280.1" r="3.5" fill="#14b8a6"/>
<circle cx="744.0" cy="296.0" r="3.5" fill="#14b8a6"/>
<path d="M52.0,295.7L138.5,295.1L225.0,293.9L311.5,293.0L398.0,292.7L484.5,287.6L571.0,261.6L657.5,201.3L744.0,108.5" fill="none" stroke="#d97706" stroke-width="2.5" stroke-linejoin="round"/>
<circle cx="52.0" cy="295.7" r="3.5" fill="#d97706"/>
<circle cx="138.5" cy="295.1" r="3.5" fill="#d97706"/>
<circle cx="225.0" cy="293.9" r="3.5" fill="#d97706"/>
<circle cx="311.5" cy="293.0" r="3.5" fill="#d97706"/>
<circle cx="398.0" cy="292.7" r="3.5" fill="#d97706"/>
<circle cx="484.5" cy="287.6" r="3.5" fill="#d97706"/>
<circle cx="571.0" cy="261.6" r="3.5" fill="#d97706"/>
<circle cx="657.5" cy="201.3" r="3.5" fill="#d97706"/>
<circle cx="744.0" cy="108.5" r="3.5" fill="#d97706"/>
<path d="M52.0,293.0L138.5,295.7L225.0,295.7L311.5,296.0L398.0,296.0L484.5,296.0L571.0,295.7L657.5,295.7L744.0,295.7" fill="none" stroke="#8b949e" stroke-linejoin="round" stroke-dasharray="4 4" stroke-width="1.5"/>
<text x="138" y="122" fill="#14b8a6">ghost lens: top-1 = actual input token</text>
<text x="744" y="96" text-anchor="end" fill="#d97706">forward lens: top-1 = final prediction</text>
<text x="312" y="288" fill="#8b949e">baseline (no Jacobian)</text>
</svg>